<?xml version="1.0" encoding="UTF-8" standalone="no"?>
<!DOCTYPE svg PUBLIC "-//W3C//DTD SVG 1.1//EN"
 "http://www.w3.org/Graphics/SVG/1.1/DTD/svg11.dtd">
<!-- Generated by graphviz version 2.40.1 (20161225.0304)
 -->
<!-- Title: snakemake_dag Pages: 1 -->
<svg width="485pt" height="260pt"
 viewBox="0.00 0.00 484.50 260.00" xmlns="http://www.w3.org/2000/svg" xmlns:xlink="http://www.w3.org/1999/xlink">
<g id="graph0" class="graph" transform="scale(1 1) rotate(0) translate(4 256)">
<title>snakemake_dag</title>
<polygon fill="#ffffff" stroke="transparent" points="-4,4 -4,-256 480.5,-256 480.5,4 -4,4"/>
<!-- 0 -->
<g id="node1" class="node">
<title>0</title>
<path fill="none" stroke="#56d0d8" stroke-width="2" d="M188,-36C188,-36 158,-36 158,-36 152,-36 146,-30 146,-24 146,-24 146,-12 146,-12 146,-6 152,0 158,0 158,0 188,0 188,0 194,0 200,-6 200,-12 200,-12 200,-24 200,-24 200,-30 194,-36 188,-36"/>
<text text-anchor="middle" x="173" y="-15.5" font-family="sans" font-size="10.00" fill="#000000">all</text>
</g>
<!-- 1 -->
<g id="node2" class="node">
<title>1</title>
<path fill="none" stroke="#d85656" stroke-width="2" d="M58,-108C58,-108 12,-108 12,-108 6,-108 0,-102 0,-96 0,-96 0,-84 0,-84 0,-78 6,-72 12,-72 12,-72 58,-72 58,-72 64,-72 70,-78 70,-84 70,-84 70,-96 70,-96 70,-102 64,-108 58,-108"/>
<text text-anchor="middle" x="35" y="-87.5" font-family="sans" font-size="10.00" fill="#000000">fastqc_raw</text>
</g>
<!-- 1&#45;&gt;0 -->
<g id="edge1" class="edge">
<title>1&#45;&gt;0</title>
<path fill="none" stroke="#c0c0c0" stroke-width="2" d="M69.8232,-71.8314C90.1803,-61.2103 115.8472,-47.8188 136.4881,-37.0497"/>
<polygon fill="#c0c0c0" stroke="#c0c0c0" stroke-width="2" points="138.3341,-40.0343 145.581,-32.3056 135.0961,-33.8282 138.3341,-40.0343"/>
</g>
<!-- 2 -->
<g id="node3" class="node">
<title>2</title>
<path fill="none" stroke="#68d856" stroke-width="2" d="M208,-108C208,-108 138,-108 138,-108 132,-108 126,-102 126,-96 126,-96 126,-84 126,-84 126,-78 132,-72 138,-72 138,-72 208,-72 208,-72 214,-72 220,-78 220,-84 220,-84 220,-96 220,-96 220,-102 214,-108 208,-108"/>
<text text-anchor="middle" x="173" y="-87.5" font-family="sans" font-size="10.00" fill="#000000">fastqc_trimmed</text>
</g>
<!-- 2&#45;&gt;0 -->
<g id="edge5" class="edge">
<title>2&#45;&gt;0</title>
<path fill="none" stroke="#c0c0c0" stroke-width="2" d="M173,-71.8314C173,-64.131 173,-54.9743 173,-46.4166"/>
<polygon fill="#c0c0c0" stroke="#c0c0c0" stroke-width="2" points="176.5001,-46.4132 173,-36.4133 169.5001,-46.4133 176.5001,-46.4132"/>
</g>
<!-- 3 -->
<g id="node4" class="node">
<title>3</title>
<path fill="none" stroke="#8fd856" stroke-width="2" d="M133,-180C133,-180 43,-180 43,-180 37,-180 31,-174 31,-168 31,-168 31,-156 31,-156 31,-150 37,-144 43,-144 43,-144 133,-144 133,-144 139,-144 145,-150 145,-156 145,-156 145,-168 145,-168 145,-174 139,-180 133,-180"/>
<text text-anchor="middle" x="88" y="-159.5" font-family="sans" font-size="10.00" fill="#000000">phiX_contamination</text>
</g>
<!-- 3&#45;&gt;0 -->
<g id="edge4" class="edge">
<title>3&#45;&gt;0</title>
<path fill="none" stroke="#c0c0c0" stroke-width="2" d="M91.0946,-143.9862C94.9548,-124.9832 102.8397,-94.7045 117,-72 123.6447,-61.3459 132.8488,-51.3083 141.877,-42.8445"/>
<polygon fill="#c0c0c0" stroke="#c0c0c0" stroke-width="2" points="144.2569,-45.4115 149.3593,-36.1262 139.5802,-40.203 144.2569,-45.4115"/>
</g>
<!-- 4 -->
<g id="node5" class="node">
<title>4</title>
<path fill="none" stroke="#d8a456" stroke-width="2" d="M364,-108C364,-108 250,-108 250,-108 244,-108 238,-102 238,-96 238,-96 238,-84 238,-84 238,-78 244,-72 250,-72 250,-72 364,-72 364,-72 370,-72 376,-78 376,-84 376,-84 376,-96 376,-96 376,-102 370,-108 364,-108"/>
<text text-anchor="middle" x="307" y="-87.5" font-family="sans" font-size="10.00" fill="#000000">microbial_contamination</text>
</g>
<!-- 4&#45;&gt;0 -->
<g id="edge3" class="edge">
<title>4&#45;&gt;0</title>
<path fill="none" stroke="#c0c0c0" stroke-width="2" d="M273.1861,-71.8314C253.642,-61.33 229.0576,-48.1205 209.1335,-37.415"/>
<polygon fill="#c0c0c0" stroke="#c0c0c0" stroke-width="2" points="210.522,-34.1879 200.0564,-32.5378 207.2087,-40.3541 210.522,-34.1879"/>
</g>
<!-- 5 -->
<g id="node6" class="node">
<title>5</title>
<path fill="none" stroke="#d87d56" stroke-width="2" d="M464.5,-180C464.5,-180 371.5,-180 371.5,-180 365.5,-180 359.5,-174 359.5,-168 359.5,-168 359.5,-156 359.5,-156 359.5,-150 365.5,-144 371.5,-144 371.5,-144 464.5,-144 464.5,-144 470.5,-144 476.5,-150 476.5,-156 476.5,-156 476.5,-168 476.5,-168 476.5,-174 470.5,-180 464.5,-180"/>
<text text-anchor="middle" x="418" y="-159.5" font-family="sans" font-size="10.00" fill="#000000">rRNA_contamination</text>
</g>
<!-- 5&#45;&gt;0 -->
<g id="edge2" class="edge">
<title>5&#45;&gt;0</title>
<path fill="none" stroke="#c0c0c0" stroke-width="2" d="M416.2876,-143.6832C413.3867,-123.2496 405.6289,-90.6246 385,-72 359.4959,-48.9739 264.1396,-31.5213 210.4128,-23.2663"/>
<polygon fill="#c0c0c0" stroke="#c0c0c0" stroke-width="2" points="210.6649,-19.7649 200.2556,-21.739 209.624,-26.6871 210.6649,-19.7649"/>
</g>
<!-- 6 -->
<g id="node7" class="node">
<title>6</title>
<path fill="none" stroke="#56d892" stroke-width="2" d="M222.5,-252C222.5,-252 177.5,-252 177.5,-252 171.5,-252 165.5,-246 165.5,-240 165.5,-240 165.5,-228 165.5,-228 165.5,-222 171.5,-216 177.5,-216 177.5,-216 222.5,-216 222.5,-216 228.5,-216 234.5,-222 234.5,-228 234.5,-228 234.5,-240 234.5,-240 234.5,-246 228.5,-252 222.5,-252"/>
<text text-anchor="middle" x="200" y="-231.5" font-family="sans" font-size="10.00" fill="#000000">trim_reads</text>
</g>
<!-- 6&#45;&gt;2 -->
<g id="edge6" class="edge">
<title>6&#45;&gt;2</title>
<path fill="none" stroke="#c0c0c0" stroke-width="2" d="M196.5804,-215.7623C191.9549,-191.0928 183.6612,-146.8598 178.245,-117.9731"/>
<polygon fill="#c0c0c0" stroke="#c0c0c0" stroke-width="2" points="181.6748,-117.2733 176.3918,-108.0896 174.7947,-118.5634 181.6748,-117.2733"/>
</g>
<!-- 6&#45;&gt;3 -->
<g id="edge7" class="edge">
<title>6&#45;&gt;3</title>
<path fill="none" stroke="#c0c0c0" stroke-width="2" d="M171.7377,-215.8314C157.5448,-206.7074 140.1718,-195.539 124.9364,-185.7449"/>
<polygon fill="#c0c0c0" stroke="#c0c0c0" stroke-width="2" points="126.5578,-182.6263 116.2533,-180.1628 122.7724,-188.5146 126.5578,-182.6263"/>
</g>
<!-- 6&#45;&gt;5 -->
<g id="edge11" class="edge">
<title>6&#45;&gt;5</title>
<path fill="none" stroke="#c0c0c0" stroke-width="2" d="M234.5427,-222.5914C266.4184,-212.0637 314.5669,-196.1614 353.5403,-183.2894"/>
<polygon fill="#c0c0c0" stroke="#c0c0c0" stroke-width="2" points="354.8378,-186.5469 363.2356,-180.0873 352.6424,-179.9001 354.8378,-186.5469"/>
</g>
<!-- 8 -->
<g id="node9" class="node">
<title>8</title>
<path fill="none" stroke="#56d8b9" stroke-width="2" d="M329,-180C329,-180 299,-180 299,-180 293,-180 287,-174 287,-168 287,-168 287,-156 287,-156 287,-150 293,-144 299,-144 299,-144 329,-144 329,-144 335,-144 341,-150 341,-156 341,-156 341,-168 341,-168 341,-174 335,-180 329,-180"/>
<text text-anchor="middle" x="314" y="-159.5" font-family="sans" font-size="10.00" fill="#000000">star</text>
</g>
<!-- 6&#45;&gt;8 -->
<g id="edge13" class="edge">
<title>6&#45;&gt;8</title>
<path fill="none" stroke="#c0c0c0" stroke-width="2" d="M228.767,-215.8314C243.7935,-206.3409 262.3223,-194.6386 278.2617,-184.5716"/>
<polygon fill="#c0c0c0" stroke="#c0c0c0" stroke-width="2" points="280.2259,-187.4707 286.8119,-179.1715 276.488,-181.5522 280.2259,-187.4707"/>
</g>
<!-- 7 -->
<g id="node8" class="node">
<title>7</title>
<path fill="none" stroke="#567bd8" stroke-width="2" d="M117.5,-252C117.5,-252 58.5,-252 58.5,-252 52.5,-252 46.5,-246 46.5,-240 46.5,-240 46.5,-228 46.5,-228 46.5,-222 52.5,-216 58.5,-216 58.5,-216 117.5,-216 117.5,-216 123.5,-216 129.5,-222 129.5,-228 129.5,-228 129.5,-240 129.5,-240 129.5,-246 123.5,-252 117.5,-252"/>
<text text-anchor="middle" x="88" y="-231.5" font-family="sans" font-size="10.00" fill="#000000">phiX_genome</text>
</g>
<!-- 7&#45;&gt;3 -->
<g id="edge8" class="edge">
<title>7&#45;&gt;3</title>
<path fill="none" stroke="#c0c0c0" stroke-width="2" d="M88,-215.8314C88,-208.131 88,-198.9743 88,-190.4166"/>
<polygon fill="#c0c0c0" stroke="#c0c0c0" stroke-width="2" points="91.5001,-190.4132 88,-180.4133 84.5001,-190.4133 91.5001,-190.4132"/>
</g>
<!-- 8&#45;&gt;4 -->
<g id="edge9" class="edge">
<title>8&#45;&gt;4</title>
<path fill="none" stroke="#c0c0c0" stroke-width="2" d="M312.2336,-143.8314C311.485,-136.131 310.5947,-126.9743 309.7627,-118.4166"/>
<polygon fill="#c0c0c0" stroke="#c0c0c0" stroke-width="2" points="313.2415,-118.0276 308.7902,-108.4133 306.2744,-118.7051 313.2415,-118.0276"/>
</g>
<!-- 9 -->
<g id="node10" class="node">
<title>9</title>
<path fill="none" stroke="#56d86b" stroke-width="2" d="M257,-180C257,-180 213,-180 213,-180 207,-180 201,-174 201,-168 201,-168 201,-156 201,-156 201,-150 207,-144 213,-144 213,-144 257,-144 257,-144 263,-144 269,-150 269,-156 269,-156 269,-168 269,-168 269,-174 263,-180 257,-180"/>
<text text-anchor="middle" x="235" y="-159.5" font-family="sans" font-size="10.00" fill="#000000">kraken_db</text>
</g>
<!-- 9&#45;&gt;4 -->
<g id="edge10" class="edge">
<title>9&#45;&gt;4</title>
<path fill="none" stroke="#c0c0c0" stroke-width="2" d="M253.1686,-143.8314C261.7152,-135.2848 272.0557,-124.9443 281.3802,-115.6198"/>
<polygon fill="#c0c0c0" stroke="#c0c0c0" stroke-width="2" points="283.9905,-117.9592 288.5867,-108.4133 279.0408,-113.0095 283.9905,-117.9592"/>
</g>
<!-- 10 -->
<g id="node11" class="node">
<title>10</title>
<path fill="none" stroke="#b6d856" stroke-width="2" d="M443,-252C443,-252 393,-252 393,-252 387,-252 381,-246 381,-240 381,-240 381,-228 381,-228 381,-222 387,-216 393,-216 393,-216 443,-216 443,-216 449,-216 455,-222 455,-228 455,-228 455,-240 455,-240 455,-246 449,-252 443,-252"/>
<text text-anchor="middle" x="418" y="-231.5" font-family="sans" font-size="10.00" fill="#000000">rRNA_index</text>
</g>
<!-- 10&#45;&gt;5 -->
<g id="edge12" class="edge">
<title>10&#45;&gt;5</title>
<path fill="none" stroke="#c0c0c0" stroke-width="2" d="M418,-215.8314C418,-208.131 418,-198.9743 418,-190.4166"/>
<polygon fill="#c0c0c0" stroke="#c0c0c0" stroke-width="2" points="421.5001,-190.4132 418,-180.4133 414.5001,-190.4133 421.5001,-190.4132"/>
</g>
<!-- 11 -->
<g id="node12" class="node">
<title>11</title>
<path fill="none" stroke="#56a9d8" stroke-width="2" d="M346.5,-252C346.5,-252 281.5,-252 281.5,-252 275.5,-252 269.5,-246 269.5,-240 269.5,-240 269.5,-228 269.5,-228 269.5,-222 275.5,-216 281.5,-216 281.5,-216 346.5,-216 346.5,-216 352.5,-216 358.5,-222 358.5,-228 358.5,-228 358.5,-240 358.5,-240 358.5,-246 352.5,-252 346.5,-252"/>
<text text-anchor="middle" x="314" y="-231.5" font-family="sans" font-size="10.00" fill="#000000">genome_index</text>
</g>
<!-- 11&#45;&gt;8 -->
<g id="edge14" class="edge">
<title>11&#45;&gt;8</title>
<path fill="none" stroke="#c0c0c0" stroke-width="2" d="M314,-215.8314C314,-208.131 314,-198.9743 314,-190.4166"/>
<polygon fill="#c0c0c0" stroke="#c0c0c0" stroke-width="2" points="317.5001,-190.4132 314,-180.4133 310.5001,-190.4133 317.5001,-190.4132"/>
</g>
</g>
</svg>
